<mxfile host="65bd71144e">
    <diagram id="C5RBs43oDa-KdzZeNtuy" name="Page-1">
        <mxGraphModel dx="907" dy="353" grid="1" gridSize="10" guides="1" tooltips="1" connect="1" arrows="1" fold="1" page="1" pageScale="1" pageWidth="827" pageHeight="1169" math="0" shadow="0">
            <root>
                <mxCell id="WIyWlLk6GJQsqaUBKTNV-0"/>
                <mxCell id="WIyWlLk6GJQsqaUBKTNV-1" parent="WIyWlLk6GJQsqaUBKTNV-0"/>
                <mxCell id="oQPgiqOCQ7jnZbvdG9ga-0" value="Алгоритм игры с конфетами. Вариант &quot;Игорёк vs Игорёк&quot;" style="text;html=1;strokeColor=none;fillColor=none;align=center;verticalAlign=middle;whiteSpace=wrap;rounded=0;" parent="WIyWlLk6GJQsqaUBKTNV-1" vertex="1">
                    <mxGeometry width="450" height="30" as="geometry"/>
                </mxCell>
                <mxCell id="oQPgiqOCQ7jnZbvdG9ga-52" value="" style="edgeStyle=orthogonalEdgeStyle;rounded=0;orthogonalLoop=1;jettySize=auto;html=1;fontColor=#000000;" parent="WIyWlLk6GJQsqaUBKTNV-1" source="oQPgiqOCQ7jnZbvdG9ga-53" edge="1">
                    <mxGeometry relative="1" as="geometry">
                        <mxPoint x="260" y="160" as="targetPoint"/>
                    </mxGeometry>
                </mxCell>
                <mxCell id="oQPgiqOCQ7jnZbvdG9ga-53" value="Start" style="ellipse;whiteSpace=wrap;html=1;" parent="WIyWlLk6GJQsqaUBKTNV-1" vertex="1">
                    <mxGeometry x="200" y="40" width="120" height="80" as="geometry"/>
                </mxCell>
                <mxCell id="oQPgiqOCQ7jnZbvdG9ga-54" style="edgeStyle=orthogonalEdgeStyle;rounded=0;orthogonalLoop=1;jettySize=auto;html=1;entryX=0.5;entryY=0;entryDx=0;entryDy=0;fontColor=#000000;exitX=0.5;exitY=1;exitDx=0;exitDy=0;" parent="WIyWlLk6GJQsqaUBKTNV-1" source="oQPgiqOCQ7jnZbvdG9ga-64" target="oQPgiqOCQ7jnZbvdG9ga-59" edge="1">
                    <mxGeometry relative="1" as="geometry">
                        <mxPoint x="260" y="220" as="sourcePoint"/>
                        <mxPoint x="260" y="270" as="targetPoint"/>
                    </mxGeometry>
                </mxCell>
                <mxCell id="oQPgiqOCQ7jnZbvdG9ga-57" value="да" style="edgeStyle=orthogonalEdgeStyle;rounded=0;orthogonalLoop=1;jettySize=auto;html=1;exitX=1;exitY=0.5;exitDx=0;exitDy=0;entryX=0;entryY=0.5;entryDx=0;entryDy=0;fontColor=#000000;" parent="WIyWlLk6GJQsqaUBKTNV-1" source="oQPgiqOCQ7jnZbvdG9ga-59" target="oQPgiqOCQ7jnZbvdG9ga-61" edge="1">
                    <mxGeometry relative="1" as="geometry"/>
                </mxCell>
                <mxCell id="oQPgiqOCQ7jnZbvdG9ga-58" value="нет" style="edgeStyle=orthogonalEdgeStyle;rounded=0;orthogonalLoop=1;jettySize=auto;html=1;exitX=0;exitY=0.5;exitDx=0;exitDy=0;entryX=1;entryY=0.5;entryDx=0;entryDy=0;fontColor=#000000;" parent="WIyWlLk6GJQsqaUBKTNV-1" source="oQPgiqOCQ7jnZbvdG9ga-59" target="oQPgiqOCQ7jnZbvdG9ga-63" edge="1">
                    <mxGeometry relative="1" as="geometry"/>
                </mxCell>
                <mxCell id="oQPgiqOCQ7jnZbvdG9ga-59" value="h == 0" style="rhombus;whiteSpace=wrap;html=1;labelBackgroundColor=none;fillColor=#60a917;strokeColor=#2D7600;fontColor=#ffffff;" parent="WIyWlLk6GJQsqaUBKTNV-1" vertex="1">
                    <mxGeometry x="200" y="320" width="120" height="80" as="geometry"/>
                </mxCell>
                <mxCell id="oQPgiqOCQ7jnZbvdG9ga-60" style="edgeStyle=orthogonalEdgeStyle;rounded=0;orthogonalLoop=1;jettySize=auto;html=1;entryX=0.5;entryY=0;entryDx=0;entryDy=0;fontFamily=Helvetica;fontSize=12;fontColor=#000000;" parent="WIyWlLk6GJQsqaUBKTNV-1" source="oQPgiqOCQ7jnZbvdG9ga-61" target="oQPgiqOCQ7jnZbvdG9ga-67" edge="1">
                    <mxGeometry relative="1" as="geometry">
                        <mxPoint x="420" y="430" as="targetPoint"/>
                        <Array as="points">
                            <mxPoint x="420" y="420"/>
                            <mxPoint x="260" y="420"/>
                        </Array>
                    </mxGeometry>
                </mxCell>
                <mxCell id="oQPgiqOCQ7jnZbvdG9ga-61" value="&quot;Первый ход делает&amp;nbsp; Игрок А&quot;" style="shape=document;whiteSpace=wrap;html=1;boundedLbl=1;labelBackgroundColor=#FFFFFF;fontColor=#000000;fillColor=#FFFFFF;" parent="WIyWlLk6GJQsqaUBKTNV-1" vertex="1">
                    <mxGeometry x="360" y="320" width="120" height="80" as="geometry"/>
                </mxCell>
                <mxCell id="oQPgiqOCQ7jnZbvdG9ga-62" value="" style="edgeStyle=orthogonalEdgeStyle;rounded=0;orthogonalLoop=1;jettySize=auto;html=1;fontFamily=Helvetica;fontSize=12;fontColor=#000000;entryX=0.5;entryY=0;entryDx=0;entryDy=0;" parent="WIyWlLk6GJQsqaUBKTNV-1" source="oQPgiqOCQ7jnZbvdG9ga-63" target="oQPgiqOCQ7jnZbvdG9ga-67" edge="1">
                    <mxGeometry relative="1" as="geometry">
                        <mxPoint x="100" y="430" as="targetPoint"/>
                        <Array as="points">
                            <mxPoint x="100" y="420"/>
                            <mxPoint x="260" y="420"/>
                        </Array>
                    </mxGeometry>
                </mxCell>
                <mxCell id="oQPgiqOCQ7jnZbvdG9ga-63" value="&quot;Первый ход делает&amp;nbsp; Игрок Б&quot;" style="shape=document;whiteSpace=wrap;html=1;boundedLbl=1;labelBackgroundColor=#FFFFFF;fontColor=#000000;fillColor=#FFFFFF;" parent="WIyWlLk6GJQsqaUBKTNV-1" vertex="1">
                    <mxGeometry x="40" y="320" width="120" height="80" as="geometry"/>
                </mxCell>
                <mxCell id="oQPgiqOCQ7jnZbvdG9ga-64" value="&lt;div style=&quot;font-family: Consolas, &amp;quot;Courier New&amp;quot;, monospace; font-size: 14px; line-height: 19px;&quot;&gt;&lt;span style=&quot;&quot;&gt;k=2021,&lt;/span&gt;&lt;/div&gt;&lt;div style=&quot;font-family: Consolas, &amp;quot;Courier New&amp;quot;, monospace; font-size: 14px; line-height: 19px;&quot;&gt;&lt;span style=&quot;&quot;&gt;g1='Игрок А'&lt;/span&gt;&lt;/div&gt;&lt;div style=&quot;font-family: Consolas, &amp;quot;Courier New&amp;quot;, monospace; font-size: 14px; line-height: 19px;&quot;&gt;&lt;span style=&quot;&quot;&gt;&amp;nbsp;g2='Игрок Б'&lt;/span&gt;&lt;/div&gt;&lt;div style=&quot;font-family: Consolas, &amp;quot;Courier New&amp;quot;, monospace; font-size: 14px; line-height: 19px;&quot;&gt;&lt;span style=&quot;font-family: Helvetica; font-size: 12px;&quot;&gt;h = randint(0, 1))&lt;/span&gt;&lt;span style=&quot;&quot;&gt;&lt;br&gt;&lt;/span&gt;&lt;/div&gt;&lt;div style=&quot;line-height: 19px;&quot;&gt;i = 0&lt;/div&gt;" style="rounded=0;whiteSpace=wrap;html=1;labelBackgroundColor=none;strokeColor=default;fontFamily=Helvetica;fontSize=12;fontColor=#000000;fillColor=#FFFFFF;align=center;" parent="WIyWlLk6GJQsqaUBKTNV-1" vertex="1">
                    <mxGeometry x="200" y="160" width="120" height="100" as="geometry"/>
                </mxCell>
                <mxCell id="oQPgiqOCQ7jnZbvdG9ga-66" value="" style="edgeStyle=orthogonalEdgeStyle;rounded=0;orthogonalLoop=1;jettySize=auto;html=1;fontFamily=Helvetica;fontSize=12;fontColor=#000000;" parent="WIyWlLk6GJQsqaUBKTNV-1" source="oQPgiqOCQ7jnZbvdG9ga-67" target="oQPgiqOCQ7jnZbvdG9ga-69" edge="1">
                    <mxGeometry relative="1" as="geometry"/>
                </mxCell>
                <mxCell id="oQPgiqOCQ7jnZbvdG9ga-67" value="k = input&lt;br&gt;(количество &lt;br&gt;конфет)" style="shape=parallelogram;perimeter=parallelogramPerimeter;whiteSpace=wrap;html=1;fixedSize=1;labelBackgroundColor=none;strokeColor=#006EAF;fontFamily=Helvetica;fontSize=12;fillColor=#1ba1e2;fontColor=#ffffff;" parent="WIyWlLk6GJQsqaUBKTNV-1" vertex="1">
                    <mxGeometry x="200" y="450" width="120" height="60" as="geometry"/>
                </mxCell>
                <mxCell id="oQPgiqOCQ7jnZbvdG9ga-68" value="да" style="edgeStyle=orthogonalEdgeStyle;rounded=0;orthogonalLoop=1;jettySize=auto;html=1;entryX=1;entryY=0.5;entryDx=0;entryDy=0;fontFamily=Helvetica;fontSize=12;fontColor=#000000;exitX=1;exitY=0.5;exitDx=0;exitDy=0;" parent="WIyWlLk6GJQsqaUBKTNV-1" source="oQPgiqOCQ7jnZbvdG9ga-69" target="oQPgiqOCQ7jnZbvdG9ga-67" edge="1">
                    <mxGeometry relative="1" as="geometry">
                        <Array as="points">
                            <mxPoint x="360" y="580"/>
                            <mxPoint x="360" y="480"/>
                        </Array>
                    </mxGeometry>
                </mxCell>
                <mxCell id="oQPgiqOCQ7jnZbvdG9ga-73" value="нет" style="edgeStyle=orthogonalEdgeStyle;rounded=0;orthogonalLoop=1;jettySize=auto;html=1;entryX=0.5;entryY=0;entryDx=0;entryDy=0;fontFamily=Helvetica;fontSize=12;fontColor=#000000;" parent="WIyWlLk6GJQsqaUBKTNV-1" source="oQPgiqOCQ7jnZbvdG9ga-69" target="oQPgiqOCQ7jnZbvdG9ga-70" edge="1">
                    <mxGeometry relative="1" as="geometry"/>
                </mxCell>
                <mxCell id="oQPgiqOCQ7jnZbvdG9ga-69" value="k &amp;gt; 28" style="rhombus;whiteSpace=wrap;html=1;labelBackgroundColor=none;fillColor=#d80073;strokeColor=#A50040;fontColor=#ffffff;" parent="WIyWlLk6GJQsqaUBKTNV-1" vertex="1">
                    <mxGeometry x="200" y="540" width="120" height="80" as="geometry"/>
                </mxCell>
                <mxCell id="oQPgiqOCQ7jnZbvdG9ga-75" style="edgeStyle=orthogonalEdgeStyle;rounded=0;orthogonalLoop=1;jettySize=auto;html=1;entryX=0.5;entryY=0;entryDx=0;entryDy=0;fontFamily=Helvetica;fontSize=12;fontColor=#000000;" parent="WIyWlLk6GJQsqaUBKTNV-1" source="oQPgiqOCQ7jnZbvdG9ga-70" target="oQPgiqOCQ7jnZbvdG9ga-71" edge="1">
                    <mxGeometry relative="1" as="geometry"/>
                </mxCell>
                <mxCell id="oQPgiqOCQ7jnZbvdG9ga-70" value="k = k - k1&lt;br&gt;i +=1" style="rounded=0;whiteSpace=wrap;html=1;labelBackgroundColor=#FFFFFF;strokeColor=default;fontFamily=Helvetica;fontSize=12;fontColor=#000000;fillColor=#FFFFFF;" parent="WIyWlLk6GJQsqaUBKTNV-1" vertex="1">
                    <mxGeometry x="200" y="650" width="120" height="60" as="geometry"/>
                </mxCell>
                <mxCell id="oQPgiqOCQ7jnZbvdG9ga-72" value="да" style="edgeStyle=orthogonalEdgeStyle;rounded=0;orthogonalLoop=1;jettySize=auto;html=1;entryX=0;entryY=0.5;entryDx=0;entryDy=0;fontFamily=Helvetica;fontSize=12;fontColor=#000000;exitX=0;exitY=0.5;exitDx=0;exitDy=0;" parent="WIyWlLk6GJQsqaUBKTNV-1" source="oQPgiqOCQ7jnZbvdG9ga-71" target="oQPgiqOCQ7jnZbvdG9ga-67" edge="1">
                    <mxGeometry x="-0.8416" relative="1" as="geometry">
                        <Array as="points">
                            <mxPoint x="120" y="780"/>
                            <mxPoint x="120" y="480"/>
                        </Array>
                        <mxPoint as="offset"/>
                    </mxGeometry>
                </mxCell>
                <mxCell id="oQPgiqOCQ7jnZbvdG9ga-76" value="нет" style="edgeStyle=orthogonalEdgeStyle;rounded=0;orthogonalLoop=1;jettySize=auto;html=1;entryX=0.5;entryY=0;entryDx=0;entryDy=0;fontFamily=Helvetica;fontSize=12;fontColor=#000000;" parent="WIyWlLk6GJQsqaUBKTNV-1" source="oQPgiqOCQ7jnZbvdG9ga-71" target="oQPgiqOCQ7jnZbvdG9ga-74" edge="1">
                    <mxGeometry relative="1" as="geometry"/>
                </mxCell>
                <mxCell id="oQPgiqOCQ7jnZbvdG9ga-71" value="k&amp;gt; 28" style="rhombus;whiteSpace=wrap;html=1;labelBackgroundColor=none;fillColor=#d80073;strokeColor=#A50040;fontColor=#ffffff;" parent="WIyWlLk6GJQsqaUBKTNV-1" vertex="1">
                    <mxGeometry x="200" y="740" width="120" height="80" as="geometry"/>
                </mxCell>
                <mxCell id="oQPgiqOCQ7jnZbvdG9ga-78" value="да" style="edgeStyle=orthogonalEdgeStyle;rounded=0;orthogonalLoop=1;jettySize=auto;html=1;fontFamily=Helvetica;fontSize=12;fontColor=#000000;" parent="WIyWlLk6GJQsqaUBKTNV-1" source="oQPgiqOCQ7jnZbvdG9ga-74" target="oQPgiqOCQ7jnZbvdG9ga-77" edge="1">
                    <mxGeometry relative="1" as="geometry"/>
                </mxCell>
                <mxCell id="oQPgiqOCQ7jnZbvdG9ga-80" value="нет" style="edgeStyle=orthogonalEdgeStyle;rounded=0;orthogonalLoop=1;jettySize=auto;html=1;fontFamily=Helvetica;fontSize=12;fontColor=#000000;" parent="WIyWlLk6GJQsqaUBKTNV-1" source="oQPgiqOCQ7jnZbvdG9ga-74" target="oQPgiqOCQ7jnZbvdG9ga-79" edge="1">
                    <mxGeometry relative="1" as="geometry"/>
                </mxCell>
                <mxCell id="oQPgiqOCQ7jnZbvdG9ga-74" value="i % 2 == 0" style="rhombus;whiteSpace=wrap;html=1;labelBackgroundColor=none;fillColor=#60a917;strokeColor=#2D7600;fontColor=#ffffff;" parent="WIyWlLk6GJQsqaUBKTNV-1" vertex="1">
                    <mxGeometry x="200" y="850" width="120" height="80" as="geometry"/>
                </mxCell>
                <mxCell id="oQPgiqOCQ7jnZbvdG9ga-82" style="edgeStyle=orthogonalEdgeStyle;rounded=0;orthogonalLoop=1;jettySize=auto;html=1;entryX=1;entryY=0.5;entryDx=0;entryDy=0;fontFamily=Helvetica;fontSize=12;fontColor=#000000;exitX=0.417;exitY=1;exitDx=0;exitDy=0;exitPerimeter=0;" parent="WIyWlLk6GJQsqaUBKTNV-1" source="oQPgiqOCQ7jnZbvdG9ga-77" target="oQPgiqOCQ7jnZbvdG9ga-81" edge="1">
                    <mxGeometry relative="1" as="geometry"/>
                </mxCell>
                <mxCell id="oQPgiqOCQ7jnZbvdG9ga-77" value="Выиграл игрок Б" style="shape=document;whiteSpace=wrap;html=1;boundedLbl=1;labelBackgroundColor=#FFFFFF;strokeColor=default;fontFamily=Helvetica;fontSize=12;fontColor=#000000;fillColor=#FFFFFF;" parent="WIyWlLk6GJQsqaUBKTNV-1" vertex="1">
                    <mxGeometry x="360" y="850" width="120" height="80" as="geometry"/>
                </mxCell>
                <mxCell id="oQPgiqOCQ7jnZbvdG9ga-83" style="edgeStyle=orthogonalEdgeStyle;rounded=0;orthogonalLoop=1;jettySize=auto;html=1;entryX=0;entryY=0.5;entryDx=0;entryDy=0;fontFamily=Helvetica;fontSize=12;fontColor=#000000;exitX=0.45;exitY=0.925;exitDx=0;exitDy=0;exitPerimeter=0;" parent="WIyWlLk6GJQsqaUBKTNV-1" source="oQPgiqOCQ7jnZbvdG9ga-79" target="oQPgiqOCQ7jnZbvdG9ga-81" edge="1">
                    <mxGeometry relative="1" as="geometry">
                        <Array as="points">
                            <mxPoint x="94" y="990"/>
                        </Array>
                    </mxGeometry>
                </mxCell>
                <mxCell id="oQPgiqOCQ7jnZbvdG9ga-79" value="Выиграл игрок А" style="shape=document;whiteSpace=wrap;html=1;boundedLbl=1;labelBackgroundColor=#FFFFFF;strokeColor=default;fontFamily=Helvetica;fontSize=12;fontColor=#000000;fillColor=#FFFFFF;" parent="WIyWlLk6GJQsqaUBKTNV-1" vertex="1">
                    <mxGeometry x="40" y="850" width="120" height="80" as="geometry"/>
                </mxCell>
                <mxCell id="oQPgiqOCQ7jnZbvdG9ga-81" value="end" style="ellipse;whiteSpace=wrap;html=1;labelBackgroundColor=#FFFFFF;strokeColor=default;fontFamily=Helvetica;fontSize=12;fontColor=#000000;fillColor=#FFFFFF;" parent="WIyWlLk6GJQsqaUBKTNV-1" vertex="1">
                    <mxGeometry x="200" y="950" width="120" height="80" as="geometry"/>
                </mxCell>
            </root>
        </mxGraphModel>
    </diagram>
</mxfile>